<?xml version="1.0" standalone="no"?>
<!DOCTYPE svg PUBLIC "-//W3C//DTD SVG 20010904//EN"
 "http://www.w3.org/TR/2001/REC-SVG-20010904/DTD/svg10.dtd">
<svg version="1.0" xmlns="http://www.w3.org/2000/svg"
 width="512.000000pt" height="512.000000pt" viewBox="0 0 512.000000 512.000000"
 preserveAspectRatio="xMidYMid meet">

<g transform="translate(0.000000,512.000000) scale(0.100000,-0.100000)"
fill="#000000" stroke="none">
<path d="M1826 3950 c-476 -246 -849 -629 -1030 -1059 -89 -209 -127 -401
-127 -634 1 -345 67 -561 248 -804 144 -193 339 -306 577 -334 281 -33 535 77
680 294 109 164 152 310 143 486 -10 198 -71 336 -212 476 -134 134 -269 198
-474 225 -126 16 -261 0 -343 -41 -21 -11 -41 -19 -46 -19 -14 0 13 138 49
255 112 363 373 668 770 901 l67 39 -91 132 c-50 73 -96 133 -102 133 -6 0
-55 -23 -109 -50z"/>
<path d="M3945 3942 c-515 -269 -911 -708 -1065 -1180 -62 -193 -74 -275 -74
-512 0 -181 3 -230 21 -310 44 -198 118 -353 245 -514 82 -104 155 -163 273
-222 133 -65 224 -87 375 -87 313 0 512 125 650 408 62 128 81 208 81 338 -1
406 -290 701 -727 742 -88 8 -209 -9 -289 -41 -32 -13 -61 -21 -64 -19 -8 9
30 181 64 282 114 342 359 626 737 855 46 27 82 54 80 60 -7 25 -174 258 -185
258 -7 0 -61 -26 -122 -58z"/>
</g>
</svg>
